# Blender v2.77 (sub 0) OBJ File: 'cube3.blend'
# www.blender.org
mtllib cube_3.mtl
o Cube
v 1.000000 -1.000000 -1.000000
v 1.000000 -1.000000 1.000000
v -1.000000 -1.000000 1.000000
v -1.000000 -1.000000 -1.000000
v 1.000000 1.000000 -0.999999
v 0.999999 1.000000 1.000001
v -1.000000 1.000000 1.000000
v -1.000000 1.000000 -1.000000
v -1.000000 -1.000000 -1.000000
v -1.000000 1.000000 -1.000000
v -1.000000 -1.000000 -3.000000
v -1.000000 1.000000 -3.000000
v 1.000000 -1.000000 -1.000000
v 1.000000 1.000000 -1.000000
v 1.000000 -1.000000 -3.000000
v 1.000000 1.000000 -3.000000
v -1.000000 1.000000 1.000000
v -1.000000 3.000000 1.000000
v -1.000000 1.000000 -1.000000
v -1.000000 3.000000 -1.000000
v 1.000000 1.000000 1.000000
v 1.000000 3.000000 1.000000
v 1.000000 1.000000 -1.000000
v 1.000000 3.000000 -1.000000
vt 0.4409 0.3768
vt 0.4409 0.2015
vt 0.6162 0.2015
vt 0.6162 0.3768
vt 0.2075 0.6166
vt 0.2075 0.7920
vt 0.0321 0.7920
vt 0.0321 0.6166
vt 0.6157 0.4403
vt 0.6157 0.6144
vt 0.4417 0.6144
vt 0.4417 0.4403
vt 0.3837 0.0263
vt 0.3837 0.2016
vt 0.2084 0.2016
vt 0.2084 0.0263
vt 0.3838 0.3770
vt 0.2084 0.3770
vt 0.2084 0.2016
vt 0.3838 0.2016
vt 0.2084 0.2016
vt 0.0330 0.2016
vt 0.0330 0.0263
vt 0.2084 0.0263
vt 0.8068 0.6139
vt 0.6327 0.6139
vt 0.6327 0.4399
vt 0.8068 0.4399
vt 0.3834 0.7920
vt 0.2080 0.7920
vt 0.2080 0.6166
vt 0.3834 0.6166
vt 0.6162 0.0261
vt 0.6162 0.2015
vt 0.4409 0.2015
vt 0.4409 0.0261
vt 0.8069 0.6143
vt 0.8069 0.7884
vt 0.6329 0.7884
vt 0.6329 0.6143
vt 0.6329 0.7884
vt 0.8069 0.7884
vt 0.8069 0.9624
vt 0.6329 0.9624
vt 0.2084 0.9674
vt 0.0330 0.9674
vt 0.0330 0.7920
vt 0.2084 0.7920
vt 0.6157 0.7884
vt 0.4417 0.7884
vt 0.4417 0.6144
vt 0.6157 0.6144
vt 0.6157 0.9625
vt 0.4417 0.9625
vn 0.0000 -1.0000 0.0000
vn 1.0000 0.0000 0.0000
vn -0.0000 -0.0000 1.0000
vn -1.0000 -0.0000 -0.0000
vn 0.0000 0.0000 -1.0000
vn 0.0000 1.0000 0.0000
usemtl Material
s off
f 1/1/1 2/2/1 3/3/1 4/4/1
f 1/5/2 5/6/2 6/7/2 2/8/2
f 2/9/3 6/10/3 7/11/3 3/12/3
f 3/13/4 7/14/4 8/15/4 4/16/4
f 18/17/4 20/18/4 19/19/4 17/20/4
f 10/21/4 12/22/4 11/23/4 9/24/4
f 12/25/5 16/26/5 15/27/5 11/28/5
f 16/29/2 14/30/2 13/31/2 15/32/2
f 9/33/1 11/34/1 15/35/1 13/36/1
f 14/37/6 16/38/6 12/39/6 10/40/6
f 20/41/5 24/42/5 23/43/5 19/44/5
f 24/45/2 22/46/2 21/47/2 23/48/2
f 22/49/3 18/50/3 17/51/3 21/52/3
f 22/49/6 24/53/6 20/54/6 18/50/6
