# Blender v2.77 (sub 0) OBJ File: 'tetris1.blend'
# www.blender.org
mtllib tetris1.mtl
o Cube
v 1.000000 0.000000 -1.000000
v 1.000000 0.000000 1.000000
v -1.000000 0.000000 1.000000
v -1.000000 0.000000 -1.000000
v 1.000000 2.000000 -0.999999
v 0.999999 2.000000 1.000001
v -1.000000 2.000000 1.000000
v -1.000000 2.000000 -1.000000
v -1.000000 0.000000 1.000000
v -1.000000 2.000000 1.000000
v -1.000000 0.000000 -1.000000
v -1.000000 2.000000 -1.000000
v 1.000000 0.000000 1.000000
v 1.000000 2.000000 1.000000
v 1.000000 0.000000 -1.000000
v 1.000000 2.000000 -1.000000
v 1.000000 0.000000 1.000000
v 1.000000 2.000000 1.000000
v 1.000000 0.000000 -1.000000
v 1.000000 2.000000 -1.000000
v 3.000000 0.000000 1.000000
v 3.000000 2.000000 1.000000
v 3.000000 0.000000 -1.000000
v 3.000000 2.000000 -1.000000
v -3.000000 0.000000 1.000000
v -3.000000 2.000000 1.000000
v -3.000000 0.000000 -1.000000
v -3.000000 2.000000 -1.000000
v -1.000000 0.000000 1.000000
v -1.000000 2.000000 1.000000
v -1.000000 0.000000 -1.000000
v -1.000000 2.000000 -1.000000
v -1.000000 2.000000 1.000000
v -1.000000 4.000000 1.000000
v -1.000000 2.000000 -1.000000
v -1.000000 4.000000 -1.000000
v 1.000000 2.000000 1.000000
v 1.000000 4.000000 1.000000
v 1.000000 2.000000 -1.000000
v 1.000000 4.000000 -1.000000
vt -0.2278 0.1432
vt -0.0612 0.1432
vt -0.0612 0.3099
vt -0.2278 0.3099
vt -0.3423 0.2053
vt -0.3423 0.3719
vt -0.5089 0.3719
vt -0.5089 0.2053
vt -0.0173 0.3216
vt -0.1840 0.3216
vt -0.1840 0.1549
vt -0.0173 0.1549
vt -0.5894 0.4176
vt -0.5894 0.2509
vt -0.4227 0.2509
vt -0.4227 0.4176
vt -0.2560 0.2509
vt -0.4227 0.0842
vt -0.2560 0.0842
vt -0.3920 0.0762
vt -0.2254 0.0762
vt -0.2254 0.2428
vt -0.3920 0.2428
vt -0.2794 0.3308
vt -0.2794 0.1641
vt -0.1127 0.1641
vt -0.1127 0.3308
vt 0.2080 0.7995
vt 0.3747 0.7995
vt 0.3747 0.9661
vt 0.2080 0.9661
vt -0.2929 0.2331
vt -0.2929 0.0664
vt -0.1263 0.0664
vt -0.1263 0.2331
vt 0.7957 0.7630
vt 0.6290 0.7630
vt 0.6290 0.5963
vt 0.7957 0.5963
vt 0.0560 0.2024
vt 0.2227 0.2024
vt 0.2227 0.3690
vt 0.0560 0.3690
vt -0.2844 -0.0455
vt -0.1178 -0.0455
vt -0.1178 0.1211
vt -0.2844 0.1211
vt -0.4113 0.3530
vt -0.4113 0.1863
vt -0.2447 0.1863
vt -0.2447 0.3530
vt 0.3747 0.7995
vt 0.5414 0.7995
vt 0.5414 0.9661
vt 0.3747 0.9661
vt 0.9655 0.1844
vt 0.7989 0.1844
vt 0.7989 0.0178
vt 0.9655 0.0178
vt 0.9623 0.7630
vt 0.7957 0.7630
vt 0.7957 0.5963
vt 0.9623 0.5963
vt 0.0560 0.3690
vt 0.2227 0.3690
vt 0.2227 0.5357
vt 0.0560 0.5357
vt 0.6322 0.0178
vt 0.7989 0.0178
vt 0.7989 0.1844
vt 0.6322 0.1844
vt 0.6322 0.4030
vt 0.4656 0.4030
vt 0.4656 0.2363
vt 0.6322 0.2363
vt 0.0414 0.7995
vt 0.2080 0.7995
vt 0.2080 0.9661
vt 0.0414 0.9661
vt -0.4215 0.2183
vt -0.4215 0.0517
vt -0.2548 0.0517
vt -0.2548 0.2183
vt 0.6290 0.7630
vt 0.4623 0.7630
vt 0.4623 0.5963
vt 0.6290 0.5963
vt 0.0560 0.0357
vt 0.2227 0.0357
vt 0.2227 0.2024
vt 0.0560 0.2024
vt 0.7989 0.4030
vt 0.6322 0.4030
vt 0.6322 0.2363
vt 0.7989 0.2363
vt 0.9656 0.4030
vt 0.7989 0.4030
vt 0.7989 0.2363
vt 0.9656 0.2363
vt 0.2080 0.6328
vt 0.3747 0.6328
vt 0.3747 0.7995
vt 0.2080 0.7995
vt 0.6322 0.1844
vt 0.4655 0.1844
vt 0.4655 0.0178
vt 0.6322 0.0178
vt 0.7957 0.9297
vt 0.6290 0.9297
vt 0.6290 0.7630
vt 0.7957 0.7630
vt -0.0942 0.1271
vt -0.0942 0.2938
vt -0.2608 0.2938
vt -0.2608 0.1271
vt 0.4655 0.0178
vt 0.4655 0.1844
vt 0.2989 0.1844
vt 0.2989 0.0178
vn 0.0000 -1.0000 0.0000
vn 0.0000 1.0000 0.0000
vn 1.0000 0.0000 0.0000
vn -0.0000 -0.0000 1.0000
vn -1.0000 -0.0000 -0.0000
vn 0.0000 0.0000 -1.0000
usemtl Material
s off
f 1/1/1 2/2/1 3/3/1 4/4/1
f 5/5/2 8/6/2 7/7/2 6/8/2
f 1/9/3 5/10/3 6/11/3 2/12/3
f 2/13/4 6/14/4 7/15/4 3/16/4
f 3/17/5 7/15/5 8/18/5 4/19/5
f 5/20/6 1/21/6 4/22/6 8/23/6
f 10/24/5 12/25/5 11/26/5 9/27/5
f 12/28/6 16/29/6 15/30/6 11/31/6
f 16/32/3 14/33/3 13/34/3 15/35/3
f 14/36/4 10/37/4 9/38/4 13/39/4
f 9/40/1 11/41/1 15/42/1 13/43/1
f 14/44/2 16/45/2 12/46/2 10/47/2
f 18/48/5 20/49/5 19/50/5 17/51/5
f 20/52/6 24/53/6 23/54/6 19/55/6
f 24/56/3 22/57/3 21/58/3 23/59/3
f 22/60/4 18/61/4 17/62/4 21/63/4
f 17/64/1 19/65/1 23/66/1 21/67/1
f 22/68/2 24/69/2 20/70/2 18/71/2
f 26/72/5 28/73/5 27/74/5 25/75/5
f 28/76/6 32/77/6 31/78/6 27/79/6
f 32/80/3 30/81/3 29/82/3 31/83/3
f 30/84/4 26/85/4 25/86/4 29/87/4
f 25/88/1 27/89/1 31/90/1 29/91/1
f 30/92/2 32/93/2 28/94/2 26/95/2
f 34/96/5 36/97/5 35/98/5 33/99/5
f 36/100/6 40/101/6 39/102/6 35/103/6
f 40/104/3 38/105/3 37/106/3 39/107/3
f 38/108/4 34/109/4 33/110/4 37/111/4
f 33/112/1 35/113/1 39/114/1 37/115/1
f 38/116/2 40/117/2 36/118/2 34/119/2
