# Blender v2.77 (sub 0) OBJ File: 'tetris1.blend'
# www.blender.org
mtllib tetris1.mtl
o Cube
v -1.000000 2.000000 -0.988358
v 1.000000 0.000000 1.000000
v -1.000000 0.000000 1.000000
v -1.000000 0.000000 -0.995637
v 1.000000 2.000000 -0.999999
v 0.999999 2.000000 1.000001
v -1.000000 2.000000 1.000000
v -1.000000 2.000000 -1.000000
v -1.000000 0.000000 0.981897
v -1.000000 2.000000 0.331332
v -1.000000 0.000000 -0.992637
v -1.000000 2.000000 -0.985358
v 1.000000 0.000000 0.981897
v 1.000000 2.000000 0.331332
v 1.000000 0.000000 -0.992637
v 1.000000 2.000000 -0.985358
v 1.000000 0.000000 1.000000
v 1.000000 2.000000 1.000000
v 1.000000 0.000000 -1.000000
v 1.000000 2.000000 -1.000000
v 3.000000 0.000000 1.000000
v 3.000000 2.000000 1.000000
v 3.000000 0.000000 -1.000000
v 3.000000 2.000000 -1.000000
v -3.000000 0.000000 1.000000
v -3.000000 2.000000 1.000000
v -3.000000 0.000000 -1.000000
v -3.000000 2.000000 -1.000000
v -1.000000 0.000000 1.000000
v -1.000000 2.000000 1.000000
v -1.000000 0.000000 -1.000000
v -1.000000 2.000000 -1.000000
v -1.000000 2.000000 1.000000
v -1.000000 4.000000 1.000000
v -1.000000 2.000000 -1.000000
v -1.000000 4.000000 -1.000000
v 1.000000 2.000000 1.000000
v 1.000000 4.000000 1.000000
v 1.000000 2.000000 -1.000000
v 1.000000 4.000000 -1.000000
v -1.000000 0.000000 0.993073
v -1.000000 2.000000 0.993073
v 1.000000 0.000000 0.993073
v 1.000000 2.000000 0.993073
v 1.000000 0.000000 -0.995637
v 1.000000 2.000000 -0.988358
vt 0.2080 0.7995
vt 0.3747 0.7995
vt 0.3747 0.9661
vt 0.2080 0.9661
vt -0.3423 0.2053
vt -0.3423 0.3719
vt -0.5089 0.3719
vt -0.5089 0.2053
vt 0.7957 0.7630
vt 0.6290 0.7630
vt 0.6290 0.5963
vt 0.7957 0.5963
vt -0.2794 0.3308
vt -0.2794 0.1641
vt -0.1127 0.1641
vt -0.1127 0.3308
vt -0.2929 0.2331
vt -0.2929 0.0664
vt -0.1263 0.0664
vt -0.1263 0.2331
vt 0.0560 0.2024
vt 0.2227 0.2024
vt 0.2227 0.3690
vt 0.0560 0.3690
vt -0.2844 -0.0455
vt -0.1178 -0.0455
vt -0.1178 0.1211
vt -0.2844 0.1211
vt 0.3747 0.7995
vt 0.5414 0.7995
vt 0.5414 0.9661
vt 0.3747 0.9661
vt 0.9655 0.1844
vt 0.7989 0.1844
vt 0.7989 0.0178
vt 0.9655 0.0178
vt 0.9623 0.7630
vt 0.7957 0.7630
vt 0.7957 0.5963
vt 0.9623 0.5963
vt 0.0560 0.3690
vt 0.2227 0.3690
vt 0.2227 0.5357
vt 0.0560 0.5357
vt 0.6322 0.0178
vt 0.7989 0.0178
vt 0.7989 0.1844
vt 0.6322 0.1844
vt 0.6322 0.4030
vt 0.4656 0.4030
vt 0.4656 0.2363
vt 0.6322 0.2363
vt 0.0414 0.7995
vt 0.2080 0.7995
vt 0.2080 0.9661
vt 0.0414 0.9661
vt 0.6290 0.7630
vt 0.4623 0.7630
vt 0.4623 0.5963
vt 0.6290 0.5963
vt 0.0560 0.0357
vt 0.2227 0.0357
vt 0.2227 0.2024
vt 0.0560 0.2024
vt 0.7989 0.4030
vt 0.6322 0.4030
vt 0.6322 0.2363
vt 0.7989 0.2363
vt 0.9656 0.4030
vt 0.7989 0.4030
vt 0.7989 0.2363
vt 0.9656 0.2363
vt 0.2080 0.6328
vt 0.3747 0.6328
vt 0.3747 0.7995
vt 0.2080 0.7995
vt 0.6322 0.1844
vt 0.4655 0.1844
vt 0.4655 0.0178
vt 0.6322 0.0178
vt 0.7957 0.9297
vt 0.6290 0.9297
vt 0.6290 0.7630
vt 0.7957 0.7630
vt -0.0942 0.1271
vt -0.0942 0.2938
vt -0.2608 0.2938
vt -0.2608 0.1271
vt 0.4655 0.0178
vt 0.4655 0.1844
vt 0.2989 0.1844
vt 0.2989 0.0178
vn 0.0000 0.0036 -1.0000
vn 0.0000 1.0000 0.0000
vn 0.0000 0.0000 1.0000
vn -1.0000 0.0000 0.0000
vn 1.0000 0.0000 0.0000
vn 0.0000 -1.0000 0.0000
vn 0.0000 0.0000 -1.0000
usemtl Material
s off
f 1/1/1 46/2/1 45/3/1 4/4/1
f 5/5/2 8/6/2 7/7/2 6/8/2
f 44/9/3 42/10/3 41/11/3 43/12/3
f 10/13/4 12/14/4 11/15/4 9/16/4
f 16/17/5 14/18/5 13/19/5 15/20/5
f 9/21/6 11/22/6 15/23/6 13/24/6
f 14/25/2 16/26/2 12/27/2 10/28/2
f 20/29/7 24/30/7 23/31/7 19/32/7
f 24/33/5 22/34/5 21/35/5 23/36/5
f 22/37/3 18/38/3 17/39/3 21/40/3
f 17/41/6 19/42/6 23/43/6 21/44/6
f 22/45/2 24/46/2 20/47/2 18/48/2
f 26/49/4 28/50/4 27/51/4 25/52/4
f 28/53/7 32/54/7 31/55/7 27/56/7
f 30/57/3 26/58/3 25/59/3 29/60/3
f 25/61/6 27/62/6 31/63/6 29/64/6
f 30/65/2 32/66/2 28/67/2 26/68/2
f 34/69/4 36/70/4 35/71/4 33/72/4
f 36/73/7 40/74/7 39/75/7 35/76/7
f 40/77/5 38/78/5 37/79/5 39/80/5
f 38/81/3 34/82/3 33/83/3 37/84/3
f 33/85/6 35/86/6 39/87/6 37/88/6
f 38/89/2 40/90/2 36/91/2 34/92/2
l 2 6
l 3 7
